<svg xmlns="http://www.w3.org/2000/svg" xmlns:xlink="http://www.w3.org/1999/xlink" width="435" height="554.344" viewBox="0 0 435 554.344">
  <defs>
    <clipPath id="clip-path">
      <rect width="435" height="554.344" fill="none"/>
    </clipPath>
  </defs>
  <g id="Repeat_Grid_10" data-name="Repeat Grid 10" opacity="0.67" clip-path="url(#clip-path)">
    <g transform="translate(12169 7915.344)">
      <path id="Path_405" data-name="Path 405" d="M0,44.95v9.394a49.393,49.393,0,0,1,54.344,0V44.95A55.068,55.068,0,0,1,30.933,0H23.411A55.068,55.068,0,0,1,0,44.95m18.244-7.008A63.287,63.287,0,0,0,26.633,22.71l.539-1.406.539,1.406A63.287,63.287,0,0,0,36.1,37.942l.85,1.138-1.4-.209a55.562,55.562,0,0,0-16.763,0l-1.4.209Z" transform="translate(-12169 -7915.344)" fill="#eee"/>
      <path id="Path_406" data-name="Path 406" d="M0,44.95v9.394a49.393,49.393,0,0,1,54.344,0V44.95A55.068,55.068,0,0,1,30.933,0H23.411A55.068,55.068,0,0,1,0,44.95m18.244-7.008A63.287,63.287,0,0,0,26.633,22.71l.539-1.406.539,1.406A63.287,63.287,0,0,0,36.1,37.942l.85,1.138-1.4-.209a55.562,55.562,0,0,0-16.763,0l-1.4.209Z" transform="translate(-12060.989 -7861) rotate(180)" fill="#eee"/>
    </g>
    <g transform="translate(12278 7915.344)">
      <path id="Path_405-2" data-name="Path 405" d="M0,44.95v9.394a49.393,49.393,0,0,1,54.344,0V44.95A55.068,55.068,0,0,1,30.933,0H23.411A55.068,55.068,0,0,1,0,44.95m18.244-7.008A63.287,63.287,0,0,0,26.633,22.71l.539-1.406.539,1.406A63.287,63.287,0,0,0,36.1,37.942l.85,1.138-1.4-.209a55.562,55.562,0,0,0-16.763,0l-1.4.209Z" transform="translate(-12169 -7915.344)" fill="#eee"/>
      <path id="Path_406-2" data-name="Path 406" d="M0,44.95v9.394a49.393,49.393,0,0,1,54.344,0V44.95A55.068,55.068,0,0,1,30.933,0H23.411A55.068,55.068,0,0,1,0,44.95m18.244-7.008A63.287,63.287,0,0,0,26.633,22.71l.539-1.406.539,1.406A63.287,63.287,0,0,0,36.1,37.942l.85,1.138-1.4-.209a55.562,55.562,0,0,0-16.763,0l-1.4.209Z" transform="translate(-12060.989 -7861) rotate(180)" fill="#eee"/>
    </g>
    <g transform="translate(12387 7915.344)">
      <path id="Path_405-3" data-name="Path 405" d="M0,44.95v9.394a49.393,49.393,0,0,1,54.344,0V44.95A55.068,55.068,0,0,1,30.933,0H23.411A55.068,55.068,0,0,1,0,44.95m18.244-7.008A63.287,63.287,0,0,0,26.633,22.71l.539-1.406.539,1.406A63.287,63.287,0,0,0,36.1,37.942l.85,1.138-1.4-.209a55.562,55.562,0,0,0-16.763,0l-1.4.209Z" transform="translate(-12169 -7915.344)" fill="#eee"/>
      <path id="Path_406-3" data-name="Path 406" d="M0,44.95v9.394a49.393,49.393,0,0,1,54.344,0V44.95A55.068,55.068,0,0,1,30.933,0H23.411A55.068,55.068,0,0,1,0,44.95m18.244-7.008A63.287,63.287,0,0,0,26.633,22.71l.539-1.406.539,1.406A63.287,63.287,0,0,0,36.1,37.942l.85,1.138-1.4-.209a55.562,55.562,0,0,0-16.763,0l-1.4.209Z" transform="translate(-12060.989 -7861) rotate(180)" fill="#eee"/>
    </g>
    <g transform="translate(12496 7915.344)">
      <path id="Path_405-4" data-name="Path 405" d="M0,44.95v9.394a49.393,49.393,0,0,1,54.344,0V44.95A55.068,55.068,0,0,1,30.933,0H23.411A55.068,55.068,0,0,1,0,44.95m18.244-7.008A63.287,63.287,0,0,0,26.633,22.71l.539-1.406.539,1.406A63.287,63.287,0,0,0,36.1,37.942l.85,1.138-1.4-.209a55.562,55.562,0,0,0-16.763,0l-1.4.209Z" transform="translate(-12169 -7915.344)" fill="#eee"/>
      <path id="Path_406-4" data-name="Path 406" d="M0,44.95v9.394a49.393,49.393,0,0,1,54.344,0V44.95A55.068,55.068,0,0,1,30.933,0H23.411A55.068,55.068,0,0,1,0,44.95m18.244-7.008A63.287,63.287,0,0,0,26.633,22.71l.539-1.406.539,1.406A63.287,63.287,0,0,0,36.1,37.942l.85,1.138-1.4-.209a55.562,55.562,0,0,0-16.763,0l-1.4.209Z" transform="translate(-12060.989 -7861) rotate(180)" fill="#eee"/>
    </g>
    <g transform="translate(12169 7970.344)">
      <path id="Path_405-5" data-name="Path 405" d="M0,44.95v9.394a49.393,49.393,0,0,1,54.344,0V44.95A55.068,55.068,0,0,1,30.933,0H23.411A55.068,55.068,0,0,1,0,44.95m18.244-7.008A63.287,63.287,0,0,0,26.633,22.71l.539-1.406.539,1.406A63.287,63.287,0,0,0,36.1,37.942l.85,1.138-1.4-.209a55.562,55.562,0,0,0-16.763,0l-1.4.209Z" transform="translate(-12169 -7915.344)" fill="#eee"/>
      <path id="Path_406-5" data-name="Path 406" d="M0,44.95v9.394a49.393,49.393,0,0,1,54.344,0V44.95A55.068,55.068,0,0,1,30.933,0H23.411A55.068,55.068,0,0,1,0,44.95m18.244-7.008A63.287,63.287,0,0,0,26.633,22.71l.539-1.406.539,1.406A63.287,63.287,0,0,0,36.1,37.942l.85,1.138-1.4-.209a55.562,55.562,0,0,0-16.763,0l-1.4.209Z" transform="translate(-12060.989 -7861) rotate(180)" fill="#eee"/>
    </g>
    <g transform="translate(12278 7970.344)">
      <path id="Path_405-6" data-name="Path 405" d="M0,44.95v9.394a49.393,49.393,0,0,1,54.344,0V44.95A55.068,55.068,0,0,1,30.933,0H23.411A55.068,55.068,0,0,1,0,44.95m18.244-7.008A63.287,63.287,0,0,0,26.633,22.71l.539-1.406.539,1.406A63.287,63.287,0,0,0,36.1,37.942l.85,1.138-1.4-.209a55.562,55.562,0,0,0-16.763,0l-1.4.209Z" transform="translate(-12169 -7915.344)" fill="#eee"/>
      <path id="Path_406-6" data-name="Path 406" d="M0,44.95v9.394a49.393,49.393,0,0,1,54.344,0V44.95A55.068,55.068,0,0,1,30.933,0H23.411A55.068,55.068,0,0,1,0,44.95m18.244-7.008A63.287,63.287,0,0,0,26.633,22.71l.539-1.406.539,1.406A63.287,63.287,0,0,0,36.1,37.942l.85,1.138-1.4-.209a55.562,55.562,0,0,0-16.763,0l-1.4.209Z" transform="translate(-12060.989 -7861) rotate(180)" fill="#eee"/>
    </g>
    <g transform="translate(12387 7970.344)">
      <path id="Path_405-7" data-name="Path 405" d="M0,44.95v9.394a49.393,49.393,0,0,1,54.344,0V44.95A55.068,55.068,0,0,1,30.933,0H23.411A55.068,55.068,0,0,1,0,44.95m18.244-7.008A63.287,63.287,0,0,0,26.633,22.71l.539-1.406.539,1.406A63.287,63.287,0,0,0,36.1,37.942l.85,1.138-1.4-.209a55.562,55.562,0,0,0-16.763,0l-1.4.209Z" transform="translate(-12169 -7915.344)" fill="#eee"/>
      <path id="Path_406-7" data-name="Path 406" d="M0,44.95v9.394a49.393,49.393,0,0,1,54.344,0V44.95A55.068,55.068,0,0,1,30.933,0H23.411A55.068,55.068,0,0,1,0,44.95m18.244-7.008A63.287,63.287,0,0,0,26.633,22.71l.539-1.406.539,1.406A63.287,63.287,0,0,0,36.1,37.942l.85,1.138-1.4-.209a55.562,55.562,0,0,0-16.763,0l-1.4.209Z" transform="translate(-12060.989 -7861) rotate(180)" fill="#eee"/>
    </g>
    <g transform="translate(12496 7970.344)">
      <path id="Path_405-8" data-name="Path 405" d="M0,44.95v9.394a49.393,49.393,0,0,1,54.344,0V44.95A55.068,55.068,0,0,1,30.933,0H23.411A55.068,55.068,0,0,1,0,44.95m18.244-7.008A63.287,63.287,0,0,0,26.633,22.71l.539-1.406.539,1.406A63.287,63.287,0,0,0,36.1,37.942l.85,1.138-1.4-.209a55.562,55.562,0,0,0-16.763,0l-1.4.209Z" transform="translate(-12169 -7915.344)" fill="#eee"/>
      <path id="Path_406-8" data-name="Path 406" d="M0,44.95v9.394a49.393,49.393,0,0,1,54.344,0V44.95A55.068,55.068,0,0,1,30.933,0H23.411A55.068,55.068,0,0,1,0,44.95m18.244-7.008A63.287,63.287,0,0,0,26.633,22.71l.539-1.406.539,1.406A63.287,63.287,0,0,0,36.1,37.942l.85,1.138-1.4-.209a55.562,55.562,0,0,0-16.763,0l-1.4.209Z" transform="translate(-12060.989 -7861) rotate(180)" fill="#eee"/>
    </g>
    <g transform="translate(12169 8025.344)">
      <path id="Path_405-9" data-name="Path 405" d="M0,44.95v9.394a49.393,49.393,0,0,1,54.344,0V44.95A55.068,55.068,0,0,1,30.933,0H23.411A55.068,55.068,0,0,1,0,44.95m18.244-7.008A63.287,63.287,0,0,0,26.633,22.71l.539-1.406.539,1.406A63.287,63.287,0,0,0,36.1,37.942l.85,1.138-1.4-.209a55.562,55.562,0,0,0-16.763,0l-1.4.209Z" transform="translate(-12169 -7915.344)" fill="#eee"/>
      <path id="Path_406-9" data-name="Path 406" d="M0,44.95v9.394a49.393,49.393,0,0,1,54.344,0V44.95A55.068,55.068,0,0,1,30.933,0H23.411A55.068,55.068,0,0,1,0,44.95m18.244-7.008A63.287,63.287,0,0,0,26.633,22.71l.539-1.406.539,1.406A63.287,63.287,0,0,0,36.1,37.942l.85,1.138-1.4-.209a55.562,55.562,0,0,0-16.763,0l-1.4.209Z" transform="translate(-12060.989 -7861) rotate(180)" fill="#eee"/>
    </g>
    <g transform="translate(12278 8025.344)">
      <path id="Path_405-10" data-name="Path 405" d="M0,44.95v9.394a49.393,49.393,0,0,1,54.344,0V44.95A55.068,55.068,0,0,1,30.933,0H23.411A55.068,55.068,0,0,1,0,44.95m18.244-7.008A63.287,63.287,0,0,0,26.633,22.71l.539-1.406.539,1.406A63.287,63.287,0,0,0,36.1,37.942l.85,1.138-1.4-.209a55.562,55.562,0,0,0-16.763,0l-1.4.209Z" transform="translate(-12169 -7915.344)" fill="#eee"/>
      <path id="Path_406-10" data-name="Path 406" d="M0,44.95v9.394a49.393,49.393,0,0,1,54.344,0V44.95A55.068,55.068,0,0,1,30.933,0H23.411A55.068,55.068,0,0,1,0,44.95m18.244-7.008A63.287,63.287,0,0,0,26.633,22.71l.539-1.406.539,1.406A63.287,63.287,0,0,0,36.1,37.942l.85,1.138-1.4-.209a55.562,55.562,0,0,0-16.763,0l-1.4.209Z" transform="translate(-12060.989 -7861) rotate(180)" fill="#eee"/>
    </g>
    <g transform="translate(12387 8025.344)">
      <path id="Path_405-11" data-name="Path 405" d="M0,44.95v9.394a49.393,49.393,0,0,1,54.344,0V44.95A55.068,55.068,0,0,1,30.933,0H23.411A55.068,55.068,0,0,1,0,44.95m18.244-7.008A63.287,63.287,0,0,0,26.633,22.71l.539-1.406.539,1.406A63.287,63.287,0,0,0,36.1,37.942l.85,1.138-1.4-.209a55.562,55.562,0,0,0-16.763,0l-1.4.209Z" transform="translate(-12169 -7915.344)" fill="#eee"/>
      <path id="Path_406-11" data-name="Path 406" d="M0,44.95v9.394a49.393,49.393,0,0,1,54.344,0V44.95A55.068,55.068,0,0,1,30.933,0H23.411A55.068,55.068,0,0,1,0,44.95m18.244-7.008A63.287,63.287,0,0,0,26.633,22.71l.539-1.406.539,1.406A63.287,63.287,0,0,0,36.1,37.942l.85,1.138-1.4-.209a55.562,55.562,0,0,0-16.763,0l-1.4.209Z" transform="translate(-12060.989 -7861) rotate(180)" fill="#eee"/>
    </g>
    <g transform="translate(12496 8025.344)">
      <path id="Path_405-12" data-name="Path 405" d="M0,44.95v9.394a49.393,49.393,0,0,1,54.344,0V44.95A55.068,55.068,0,0,1,30.933,0H23.411A55.068,55.068,0,0,1,0,44.95m18.244-7.008A63.287,63.287,0,0,0,26.633,22.71l.539-1.406.539,1.406A63.287,63.287,0,0,0,36.1,37.942l.85,1.138-1.4-.209a55.562,55.562,0,0,0-16.763,0l-1.4.209Z" transform="translate(-12169 -7915.344)" fill="#eee"/>
      <path id="Path_406-12" data-name="Path 406" d="M0,44.95v9.394a49.393,49.393,0,0,1,54.344,0V44.95A55.068,55.068,0,0,1,30.933,0H23.411A55.068,55.068,0,0,1,0,44.95m18.244-7.008A63.287,63.287,0,0,0,26.633,22.71l.539-1.406.539,1.406A63.287,63.287,0,0,0,36.1,37.942l.85,1.138-1.4-.209a55.562,55.562,0,0,0-16.763,0l-1.4.209Z" transform="translate(-12060.989 -7861) rotate(180)" fill="#eee"/>
    </g>
    <g transform="translate(12169 8080.344)">
      <path id="Path_405-13" data-name="Path 405" d="M0,44.95v9.394a49.393,49.393,0,0,1,54.344,0V44.95A55.068,55.068,0,0,1,30.933,0H23.411A55.068,55.068,0,0,1,0,44.95m18.244-7.008A63.287,63.287,0,0,0,26.633,22.71l.539-1.406.539,1.406A63.287,63.287,0,0,0,36.1,37.942l.85,1.138-1.4-.209a55.562,55.562,0,0,0-16.763,0l-1.4.209Z" transform="translate(-12169 -7915.344)" fill="#eee"/>
      <path id="Path_406-13" data-name="Path 406" d="M0,44.95v9.394a49.393,49.393,0,0,1,54.344,0V44.95A55.068,55.068,0,0,1,30.933,0H23.411A55.068,55.068,0,0,1,0,44.95m18.244-7.008A63.287,63.287,0,0,0,26.633,22.71l.539-1.406.539,1.406A63.287,63.287,0,0,0,36.1,37.942l.85,1.138-1.4-.209a55.562,55.562,0,0,0-16.763,0l-1.4.209Z" transform="translate(-12060.989 -7861) rotate(180)" fill="#eee"/>
    </g>
    <g transform="translate(12278 8080.344)">
      <path id="Path_405-14" data-name="Path 405" d="M0,44.95v9.394a49.393,49.393,0,0,1,54.344,0V44.95A55.068,55.068,0,0,1,30.933,0H23.411A55.068,55.068,0,0,1,0,44.95m18.244-7.008A63.287,63.287,0,0,0,26.633,22.71l.539-1.406.539,1.406A63.287,63.287,0,0,0,36.1,37.942l.85,1.138-1.4-.209a55.562,55.562,0,0,0-16.763,0l-1.4.209Z" transform="translate(-12169 -7915.344)" fill="#eee"/>
      <path id="Path_406-14" data-name="Path 406" d="M0,44.95v9.394a49.393,49.393,0,0,1,54.344,0V44.95A55.068,55.068,0,0,1,30.933,0H23.411A55.068,55.068,0,0,1,0,44.95m18.244-7.008A63.287,63.287,0,0,0,26.633,22.71l.539-1.406.539,1.406A63.287,63.287,0,0,0,36.1,37.942l.85,1.138-1.4-.209a55.562,55.562,0,0,0-16.763,0l-1.4.209Z" transform="translate(-12060.989 -7861) rotate(180)" fill="#eee"/>
    </g>
    <g transform="translate(12387 8080.344)">
      <path id="Path_405-15" data-name="Path 405" d="M0,44.95v9.394a49.393,49.393,0,0,1,54.344,0V44.95A55.068,55.068,0,0,1,30.933,0H23.411A55.068,55.068,0,0,1,0,44.95m18.244-7.008A63.287,63.287,0,0,0,26.633,22.71l.539-1.406.539,1.406A63.287,63.287,0,0,0,36.1,37.942l.85,1.138-1.4-.209a55.562,55.562,0,0,0-16.763,0l-1.4.209Z" transform="translate(-12169 -7915.344)" fill="#eee"/>
      <path id="Path_406-15" data-name="Path 406" d="M0,44.95v9.394a49.393,49.393,0,0,1,54.344,0V44.95A55.068,55.068,0,0,1,30.933,0H23.411A55.068,55.068,0,0,1,0,44.95m18.244-7.008A63.287,63.287,0,0,0,26.633,22.71l.539-1.406.539,1.406A63.287,63.287,0,0,0,36.1,37.942l.85,1.138-1.4-.209a55.562,55.562,0,0,0-16.763,0l-1.4.209Z" transform="translate(-12060.989 -7861) rotate(180)" fill="#eee"/>
    </g>
    <g transform="translate(12496 8080.344)">
      <path id="Path_405-16" data-name="Path 405" d="M0,44.95v9.394a49.393,49.393,0,0,1,54.344,0V44.95A55.068,55.068,0,0,1,30.933,0H23.411A55.068,55.068,0,0,1,0,44.95m18.244-7.008A63.287,63.287,0,0,0,26.633,22.71l.539-1.406.539,1.406A63.287,63.287,0,0,0,36.1,37.942l.85,1.138-1.4-.209a55.562,55.562,0,0,0-16.763,0l-1.4.209Z" transform="translate(-12169 -7915.344)" fill="#eee"/>
      <path id="Path_406-16" data-name="Path 406" d="M0,44.95v9.394a49.393,49.393,0,0,1,54.344,0V44.95A55.068,55.068,0,0,1,30.933,0H23.411A55.068,55.068,0,0,1,0,44.95m18.244-7.008A63.287,63.287,0,0,0,26.633,22.71l.539-1.406.539,1.406A63.287,63.287,0,0,0,36.1,37.942l.85,1.138-1.4-.209a55.562,55.562,0,0,0-16.763,0l-1.4.209Z" transform="translate(-12060.989 -7861) rotate(180)" fill="#eee"/>
    </g>
    <g transform="translate(12169 8135.344)">
      <path id="Path_405-17" data-name="Path 405" d="M0,44.95v9.394a49.393,49.393,0,0,1,54.344,0V44.95A55.068,55.068,0,0,1,30.933,0H23.411A55.068,55.068,0,0,1,0,44.95m18.244-7.008A63.287,63.287,0,0,0,26.633,22.71l.539-1.406.539,1.406A63.287,63.287,0,0,0,36.1,37.942l.85,1.138-1.4-.209a55.562,55.562,0,0,0-16.763,0l-1.4.209Z" transform="translate(-12169 -7915.344)" fill="#eee"/>
      <path id="Path_406-17" data-name="Path 406" d="M0,44.95v9.394a49.393,49.393,0,0,1,54.344,0V44.95A55.068,55.068,0,0,1,30.933,0H23.411A55.068,55.068,0,0,1,0,44.95m18.244-7.008A63.287,63.287,0,0,0,26.633,22.71l.539-1.406.539,1.406A63.287,63.287,0,0,0,36.1,37.942l.85,1.138-1.4-.209a55.562,55.562,0,0,0-16.763,0l-1.4.209Z" transform="translate(-12060.989 -7861) rotate(180)" fill="#eee"/>
    </g>
    <g transform="translate(12278 8135.344)">
      <path id="Path_405-18" data-name="Path 405" d="M0,44.95v9.394a49.393,49.393,0,0,1,54.344,0V44.95A55.068,55.068,0,0,1,30.933,0H23.411A55.068,55.068,0,0,1,0,44.95m18.244-7.008A63.287,63.287,0,0,0,26.633,22.71l.539-1.406.539,1.406A63.287,63.287,0,0,0,36.1,37.942l.85,1.138-1.4-.209a55.562,55.562,0,0,0-16.763,0l-1.4.209Z" transform="translate(-12169 -7915.344)" fill="#eee"/>
      <path id="Path_406-18" data-name="Path 406" d="M0,44.95v9.394a49.393,49.393,0,0,1,54.344,0V44.95A55.068,55.068,0,0,1,30.933,0H23.411A55.068,55.068,0,0,1,0,44.95m18.244-7.008A63.287,63.287,0,0,0,26.633,22.71l.539-1.406.539,1.406A63.287,63.287,0,0,0,36.1,37.942l.85,1.138-1.4-.209a55.562,55.562,0,0,0-16.763,0l-1.4.209Z" transform="translate(-12060.989 -7861) rotate(180)" fill="#eee"/>
    </g>
    <g transform="translate(12387 8135.344)">
      <path id="Path_405-19" data-name="Path 405" d="M0,44.95v9.394a49.393,49.393,0,0,1,54.344,0V44.95A55.068,55.068,0,0,1,30.933,0H23.411A55.068,55.068,0,0,1,0,44.95m18.244-7.008A63.287,63.287,0,0,0,26.633,22.71l.539-1.406.539,1.406A63.287,63.287,0,0,0,36.1,37.942l.85,1.138-1.4-.209a55.562,55.562,0,0,0-16.763,0l-1.4.209Z" transform="translate(-12169 -7915.344)" fill="#eee"/>
      <path id="Path_406-19" data-name="Path 406" d="M0,44.95v9.394a49.393,49.393,0,0,1,54.344,0V44.95A55.068,55.068,0,0,1,30.933,0H23.411A55.068,55.068,0,0,1,0,44.95m18.244-7.008A63.287,63.287,0,0,0,26.633,22.71l.539-1.406.539,1.406A63.287,63.287,0,0,0,36.1,37.942l.85,1.138-1.4-.209a55.562,55.562,0,0,0-16.763,0l-1.4.209Z" transform="translate(-12060.989 -7861) rotate(180)" fill="#eee"/>
    </g>
    <g transform="translate(12496 8135.344)">
      <path id="Path_405-20" data-name="Path 405" d="M0,44.95v9.394a49.393,49.393,0,0,1,54.344,0V44.95A55.068,55.068,0,0,1,30.933,0H23.411A55.068,55.068,0,0,1,0,44.95m18.244-7.008A63.287,63.287,0,0,0,26.633,22.71l.539-1.406.539,1.406A63.287,63.287,0,0,0,36.1,37.942l.85,1.138-1.4-.209a55.562,55.562,0,0,0-16.763,0l-1.4.209Z" transform="translate(-12169 -7915.344)" fill="#eee"/>
      <path id="Path_406-20" data-name="Path 406" d="M0,44.95v9.394a49.393,49.393,0,0,1,54.344,0V44.95A55.068,55.068,0,0,1,30.933,0H23.411A55.068,55.068,0,0,1,0,44.95m18.244-7.008A63.287,63.287,0,0,0,26.633,22.71l.539-1.406.539,1.406A63.287,63.287,0,0,0,36.1,37.942l.85,1.138-1.4-.209a55.562,55.562,0,0,0-16.763,0l-1.4.209Z" transform="translate(-12060.989 -7861) rotate(180)" fill="#eee"/>
    </g>
    <g transform="translate(12169 8190.344)">
      <path id="Path_405-21" data-name="Path 405" d="M0,44.95v9.394a49.393,49.393,0,0,1,54.344,0V44.95A55.068,55.068,0,0,1,30.933,0H23.411A55.068,55.068,0,0,1,0,44.95m18.244-7.008A63.287,63.287,0,0,0,26.633,22.71l.539-1.406.539,1.406A63.287,63.287,0,0,0,36.1,37.942l.85,1.138-1.4-.209a55.562,55.562,0,0,0-16.763,0l-1.4.209Z" transform="translate(-12169 -7915.344)" fill="#eee"/>
      <path id="Path_406-21" data-name="Path 406" d="M0,44.95v9.394a49.393,49.393,0,0,1,54.344,0V44.95A55.068,55.068,0,0,1,30.933,0H23.411A55.068,55.068,0,0,1,0,44.95m18.244-7.008A63.287,63.287,0,0,0,26.633,22.71l.539-1.406.539,1.406A63.287,63.287,0,0,0,36.1,37.942l.85,1.138-1.4-.209a55.562,55.562,0,0,0-16.763,0l-1.4.209Z" transform="translate(-12060.989 -7861) rotate(180)" fill="#eee"/>
    </g>
    <g transform="translate(12278 8190.344)">
      <path id="Path_405-22" data-name="Path 405" d="M0,44.95v9.394a49.393,49.393,0,0,1,54.344,0V44.95A55.068,55.068,0,0,1,30.933,0H23.411A55.068,55.068,0,0,1,0,44.95m18.244-7.008A63.287,63.287,0,0,0,26.633,22.71l.539-1.406.539,1.406A63.287,63.287,0,0,0,36.1,37.942l.85,1.138-1.4-.209a55.562,55.562,0,0,0-16.763,0l-1.4.209Z" transform="translate(-12169 -7915.344)" fill="#eee"/>
      <path id="Path_406-22" data-name="Path 406" d="M0,44.95v9.394a49.393,49.393,0,0,1,54.344,0V44.95A55.068,55.068,0,0,1,30.933,0H23.411A55.068,55.068,0,0,1,0,44.95m18.244-7.008A63.287,63.287,0,0,0,26.633,22.71l.539-1.406.539,1.406A63.287,63.287,0,0,0,36.1,37.942l.85,1.138-1.4-.209a55.562,55.562,0,0,0-16.763,0l-1.4.209Z" transform="translate(-12060.989 -7861) rotate(180)" fill="#eee"/>
    </g>
    <g transform="translate(12387 8190.344)">
      <path id="Path_405-23" data-name="Path 405" d="M0,44.95v9.394a49.393,49.393,0,0,1,54.344,0V44.95A55.068,55.068,0,0,1,30.933,0H23.411A55.068,55.068,0,0,1,0,44.95m18.244-7.008A63.287,63.287,0,0,0,26.633,22.71l.539-1.406.539,1.406A63.287,63.287,0,0,0,36.1,37.942l.85,1.138-1.4-.209a55.562,55.562,0,0,0-16.763,0l-1.4.209Z" transform="translate(-12169 -7915.344)" fill="#eee"/>
      <path id="Path_406-23" data-name="Path 406" d="M0,44.95v9.394a49.393,49.393,0,0,1,54.344,0V44.95A55.068,55.068,0,0,1,30.933,0H23.411A55.068,55.068,0,0,1,0,44.95m18.244-7.008A63.287,63.287,0,0,0,26.633,22.71l.539-1.406.539,1.406A63.287,63.287,0,0,0,36.1,37.942l.85,1.138-1.4-.209a55.562,55.562,0,0,0-16.763,0l-1.4.209Z" transform="translate(-12060.989 -7861) rotate(180)" fill="#eee"/>
    </g>
    <g transform="translate(12496 8190.344)">
      <path id="Path_405-24" data-name="Path 405" d="M0,44.95v9.394a49.393,49.393,0,0,1,54.344,0V44.95A55.068,55.068,0,0,1,30.933,0H23.411A55.068,55.068,0,0,1,0,44.95m18.244-7.008A63.287,63.287,0,0,0,26.633,22.71l.539-1.406.539,1.406A63.287,63.287,0,0,0,36.1,37.942l.85,1.138-1.4-.209a55.562,55.562,0,0,0-16.763,0l-1.4.209Z" transform="translate(-12169 -7915.344)" fill="#eee"/>
      <path id="Path_406-24" data-name="Path 406" d="M0,44.95v9.394a49.393,49.393,0,0,1,54.344,0V44.95A55.068,55.068,0,0,1,30.933,0H23.411A55.068,55.068,0,0,1,0,44.95m18.244-7.008A63.287,63.287,0,0,0,26.633,22.71l.539-1.406.539,1.406A63.287,63.287,0,0,0,36.1,37.942l.85,1.138-1.4-.209a55.562,55.562,0,0,0-16.763,0l-1.4.209Z" transform="translate(-12060.989 -7861) rotate(180)" fill="#eee"/>
    </g>
    <g transform="translate(12169 8245.344)">
      <path id="Path_405-25" data-name="Path 405" d="M0,44.95v9.394a49.393,49.393,0,0,1,54.344,0V44.95A55.068,55.068,0,0,1,30.933,0H23.411A55.068,55.068,0,0,1,0,44.95m18.244-7.008A63.287,63.287,0,0,0,26.633,22.71l.539-1.406.539,1.406A63.287,63.287,0,0,0,36.1,37.942l.85,1.138-1.4-.209a55.562,55.562,0,0,0-16.763,0l-1.4.209Z" transform="translate(-12169 -7915.344)" fill="#eee"/>
      <path id="Path_406-25" data-name="Path 406" d="M0,44.95v9.394a49.393,49.393,0,0,1,54.344,0V44.95A55.068,55.068,0,0,1,30.933,0H23.411A55.068,55.068,0,0,1,0,44.95m18.244-7.008A63.287,63.287,0,0,0,26.633,22.71l.539-1.406.539,1.406A63.287,63.287,0,0,0,36.1,37.942l.85,1.138-1.4-.209a55.562,55.562,0,0,0-16.763,0l-1.4.209Z" transform="translate(-12060.989 -7861) rotate(180)" fill="#eee"/>
    </g>
    <g transform="translate(12278 8245.344)">
      <path id="Path_405-26" data-name="Path 405" d="M0,44.95v9.394a49.393,49.393,0,0,1,54.344,0V44.95A55.068,55.068,0,0,1,30.933,0H23.411A55.068,55.068,0,0,1,0,44.95m18.244-7.008A63.287,63.287,0,0,0,26.633,22.71l.539-1.406.539,1.406A63.287,63.287,0,0,0,36.1,37.942l.85,1.138-1.4-.209a55.562,55.562,0,0,0-16.763,0l-1.4.209Z" transform="translate(-12169 -7915.344)" fill="#eee"/>
      <path id="Path_406-26" data-name="Path 406" d="M0,44.95v9.394a49.393,49.393,0,0,1,54.344,0V44.95A55.068,55.068,0,0,1,30.933,0H23.411A55.068,55.068,0,0,1,0,44.95m18.244-7.008A63.287,63.287,0,0,0,26.633,22.71l.539-1.406.539,1.406A63.287,63.287,0,0,0,36.1,37.942l.85,1.138-1.4-.209a55.562,55.562,0,0,0-16.763,0l-1.4.209Z" transform="translate(-12060.989 -7861) rotate(180)" fill="#eee"/>
    </g>
    <g transform="translate(12387 8245.344)">
      <path id="Path_405-27" data-name="Path 405" d="M0,44.95v9.394a49.393,49.393,0,0,1,54.344,0V44.95A55.068,55.068,0,0,1,30.933,0H23.411A55.068,55.068,0,0,1,0,44.95m18.244-7.008A63.287,63.287,0,0,0,26.633,22.71l.539-1.406.539,1.406A63.287,63.287,0,0,0,36.1,37.942l.85,1.138-1.4-.209a55.562,55.562,0,0,0-16.763,0l-1.4.209Z" transform="translate(-12169 -7915.344)" fill="#eee"/>
      <path id="Path_406-27" data-name="Path 406" d="M0,44.95v9.394a49.393,49.393,0,0,1,54.344,0V44.95A55.068,55.068,0,0,1,30.933,0H23.411A55.068,55.068,0,0,1,0,44.95m18.244-7.008A63.287,63.287,0,0,0,26.633,22.71l.539-1.406.539,1.406A63.287,63.287,0,0,0,36.1,37.942l.85,1.138-1.4-.209a55.562,55.562,0,0,0-16.763,0l-1.4.209Z" transform="translate(-12060.989 -7861) rotate(180)" fill="#eee"/>
    </g>
    <g transform="translate(12496 8245.344)">
      <path id="Path_405-28" data-name="Path 405" d="M0,44.95v9.394a49.393,49.393,0,0,1,54.344,0V44.95A55.068,55.068,0,0,1,30.933,0H23.411A55.068,55.068,0,0,1,0,44.95m18.244-7.008A63.287,63.287,0,0,0,26.633,22.71l.539-1.406.539,1.406A63.287,63.287,0,0,0,36.1,37.942l.85,1.138-1.4-.209a55.562,55.562,0,0,0-16.763,0l-1.4.209Z" transform="translate(-12169 -7915.344)" fill="#eee"/>
      <path id="Path_406-28" data-name="Path 406" d="M0,44.95v9.394a49.393,49.393,0,0,1,54.344,0V44.95A55.068,55.068,0,0,1,30.933,0H23.411A55.068,55.068,0,0,1,0,44.95m18.244-7.008A63.287,63.287,0,0,0,26.633,22.71l.539-1.406.539,1.406A63.287,63.287,0,0,0,36.1,37.942l.85,1.138-1.4-.209a55.562,55.562,0,0,0-16.763,0l-1.4.209Z" transform="translate(-12060.989 -7861) rotate(180)" fill="#eee"/>
    </g>
    <g transform="translate(12169 8300.344)">
      <path id="Path_405-29" data-name="Path 405" d="M0,44.95v9.394a49.393,49.393,0,0,1,54.344,0V44.95A55.068,55.068,0,0,1,30.933,0H23.411A55.068,55.068,0,0,1,0,44.95m18.244-7.008A63.287,63.287,0,0,0,26.633,22.71l.539-1.406.539,1.406A63.287,63.287,0,0,0,36.1,37.942l.85,1.138-1.4-.209a55.562,55.562,0,0,0-16.763,0l-1.4.209Z" transform="translate(-12169 -7915.344)" fill="#eee"/>
      <path id="Path_406-29" data-name="Path 406" d="M0,44.95v9.394a49.393,49.393,0,0,1,54.344,0V44.95A55.068,55.068,0,0,1,30.933,0H23.411A55.068,55.068,0,0,1,0,44.95m18.244-7.008A63.287,63.287,0,0,0,26.633,22.71l.539-1.406.539,1.406A63.287,63.287,0,0,0,36.1,37.942l.85,1.138-1.4-.209a55.562,55.562,0,0,0-16.763,0l-1.4.209Z" transform="translate(-12060.989 -7861) rotate(180)" fill="#eee"/>
    </g>
    <g transform="translate(12278 8300.344)">
      <path id="Path_405-30" data-name="Path 405" d="M0,44.95v9.394a49.393,49.393,0,0,1,54.344,0V44.95A55.068,55.068,0,0,1,30.933,0H23.411A55.068,55.068,0,0,1,0,44.95m18.244-7.008A63.287,63.287,0,0,0,26.633,22.71l.539-1.406.539,1.406A63.287,63.287,0,0,0,36.1,37.942l.85,1.138-1.4-.209a55.562,55.562,0,0,0-16.763,0l-1.4.209Z" transform="translate(-12169 -7915.344)" fill="#eee"/>
      <path id="Path_406-30" data-name="Path 406" d="M0,44.95v9.394a49.393,49.393,0,0,1,54.344,0V44.95A55.068,55.068,0,0,1,30.933,0H23.411A55.068,55.068,0,0,1,0,44.95m18.244-7.008A63.287,63.287,0,0,0,26.633,22.71l.539-1.406.539,1.406A63.287,63.287,0,0,0,36.1,37.942l.85,1.138-1.4-.209a55.562,55.562,0,0,0-16.763,0l-1.4.209Z" transform="translate(-12060.989 -7861) rotate(180)" fill="#eee"/>
    </g>
    <g transform="translate(12387 8300.344)">
      <path id="Path_405-31" data-name="Path 405" d="M0,44.95v9.394a49.393,49.393,0,0,1,54.344,0V44.95A55.068,55.068,0,0,1,30.933,0H23.411A55.068,55.068,0,0,1,0,44.95m18.244-7.008A63.287,63.287,0,0,0,26.633,22.71l.539-1.406.539,1.406A63.287,63.287,0,0,0,36.1,37.942l.85,1.138-1.4-.209a55.562,55.562,0,0,0-16.763,0l-1.4.209Z" transform="translate(-12169 -7915.344)" fill="#eee"/>
      <path id="Path_406-31" data-name="Path 406" d="M0,44.95v9.394a49.393,49.393,0,0,1,54.344,0V44.95A55.068,55.068,0,0,1,30.933,0H23.411A55.068,55.068,0,0,1,0,44.95m18.244-7.008A63.287,63.287,0,0,0,26.633,22.71l.539-1.406.539,1.406A63.287,63.287,0,0,0,36.1,37.942l.85,1.138-1.4-.209a55.562,55.562,0,0,0-16.763,0l-1.4.209Z" transform="translate(-12060.989 -7861) rotate(180)" fill="#eee"/>
    </g>
    <g transform="translate(12496 8300.344)">
      <path id="Path_405-32" data-name="Path 405" d="M0,44.95v9.394a49.393,49.393,0,0,1,54.344,0V44.95A55.068,55.068,0,0,1,30.933,0H23.411A55.068,55.068,0,0,1,0,44.95m18.244-7.008A63.287,63.287,0,0,0,26.633,22.71l.539-1.406.539,1.406A63.287,63.287,0,0,0,36.1,37.942l.85,1.138-1.4-.209a55.562,55.562,0,0,0-16.763,0l-1.4.209Z" transform="translate(-12169 -7915.344)" fill="#eee"/>
      <path id="Path_406-32" data-name="Path 406" d="M0,44.95v9.394a49.393,49.393,0,0,1,54.344,0V44.95A55.068,55.068,0,0,1,30.933,0H23.411A55.068,55.068,0,0,1,0,44.95m18.244-7.008A63.287,63.287,0,0,0,26.633,22.71l.539-1.406.539,1.406A63.287,63.287,0,0,0,36.1,37.942l.85,1.138-1.4-.209a55.562,55.562,0,0,0-16.763,0l-1.4.209Z" transform="translate(-12060.989 -7861) rotate(180)" fill="#eee"/>
    </g>
    <g transform="translate(12169 8355.344)">
      <path id="Path_405-33" data-name="Path 405" d="M0,44.95v9.394a49.393,49.393,0,0,1,54.344,0V44.95A55.068,55.068,0,0,1,30.933,0H23.411A55.068,55.068,0,0,1,0,44.95m18.244-7.008A63.287,63.287,0,0,0,26.633,22.71l.539-1.406.539,1.406A63.287,63.287,0,0,0,36.1,37.942l.85,1.138-1.4-.209a55.562,55.562,0,0,0-16.763,0l-1.4.209Z" transform="translate(-12169 -7915.344)" fill="#eee"/>
      <path id="Path_406-33" data-name="Path 406" d="M0,44.95v9.394a49.393,49.393,0,0,1,54.344,0V44.95A55.068,55.068,0,0,1,30.933,0H23.411A55.068,55.068,0,0,1,0,44.95m18.244-7.008A63.287,63.287,0,0,0,26.633,22.71l.539-1.406.539,1.406A63.287,63.287,0,0,0,36.1,37.942l.85,1.138-1.4-.209a55.562,55.562,0,0,0-16.763,0l-1.4.209Z" transform="translate(-12060.989 -7861) rotate(180)" fill="#eee"/>
    </g>
    <g transform="translate(12278 8355.344)">
      <path id="Path_405-34" data-name="Path 405" d="M0,44.95v9.394a49.393,49.393,0,0,1,54.344,0V44.95A55.068,55.068,0,0,1,30.933,0H23.411A55.068,55.068,0,0,1,0,44.95m18.244-7.008A63.287,63.287,0,0,0,26.633,22.71l.539-1.406.539,1.406A63.287,63.287,0,0,0,36.1,37.942l.85,1.138-1.4-.209a55.562,55.562,0,0,0-16.763,0l-1.4.209Z" transform="translate(-12169 -7915.344)" fill="#eee"/>
      <path id="Path_406-34" data-name="Path 406" d="M0,44.95v9.394a49.393,49.393,0,0,1,54.344,0V44.95A55.068,55.068,0,0,1,30.933,0H23.411A55.068,55.068,0,0,1,0,44.95m18.244-7.008A63.287,63.287,0,0,0,26.633,22.71l.539-1.406.539,1.406A63.287,63.287,0,0,0,36.1,37.942l.85,1.138-1.4-.209a55.562,55.562,0,0,0-16.763,0l-1.4.209Z" transform="translate(-12060.989 -7861) rotate(180)" fill="#eee"/>
    </g>
    <g transform="translate(12387 8355.344)">
      <path id="Path_405-35" data-name="Path 405" d="M0,44.95v9.394a49.393,49.393,0,0,1,54.344,0V44.95A55.068,55.068,0,0,1,30.933,0H23.411A55.068,55.068,0,0,1,0,44.95m18.244-7.008A63.287,63.287,0,0,0,26.633,22.71l.539-1.406.539,1.406A63.287,63.287,0,0,0,36.1,37.942l.85,1.138-1.4-.209a55.562,55.562,0,0,0-16.763,0l-1.4.209Z" transform="translate(-12169 -7915.344)" fill="#eee"/>
      <path id="Path_406-35" data-name="Path 406" d="M0,44.95v9.394a49.393,49.393,0,0,1,54.344,0V44.95A55.068,55.068,0,0,1,30.933,0H23.411A55.068,55.068,0,0,1,0,44.95m18.244-7.008A63.287,63.287,0,0,0,26.633,22.71l.539-1.406.539,1.406A63.287,63.287,0,0,0,36.1,37.942l.85,1.138-1.4-.209a55.562,55.562,0,0,0-16.763,0l-1.4.209Z" transform="translate(-12060.989 -7861) rotate(180)" fill="#eee"/>
    </g>
    <g transform="translate(12496 8355.344)">
      <path id="Path_405-36" data-name="Path 405" d="M0,44.95v9.394a49.393,49.393,0,0,1,54.344,0V44.95A55.068,55.068,0,0,1,30.933,0H23.411A55.068,55.068,0,0,1,0,44.95m18.244-7.008A63.287,63.287,0,0,0,26.633,22.71l.539-1.406.539,1.406A63.287,63.287,0,0,0,36.1,37.942l.85,1.138-1.4-.209a55.562,55.562,0,0,0-16.763,0l-1.4.209Z" transform="translate(-12169 -7915.344)" fill="#eee"/>
      <path id="Path_406-36" data-name="Path 406" d="M0,44.95v9.394a49.393,49.393,0,0,1,54.344,0V44.95A55.068,55.068,0,0,1,30.933,0H23.411A55.068,55.068,0,0,1,0,44.95m18.244-7.008A63.287,63.287,0,0,0,26.633,22.71l.539-1.406.539,1.406A63.287,63.287,0,0,0,36.1,37.942l.85,1.138-1.4-.209a55.562,55.562,0,0,0-16.763,0l-1.4.209Z" transform="translate(-12060.989 -7861) rotate(180)" fill="#eee"/>
    </g>
    <g transform="translate(12169 8410.344)">
      <path id="Path_405-37" data-name="Path 405" d="M0,44.95v9.394a49.393,49.393,0,0,1,54.344,0V44.95A55.068,55.068,0,0,1,30.933,0H23.411A55.068,55.068,0,0,1,0,44.95m18.244-7.008A63.287,63.287,0,0,0,26.633,22.71l.539-1.406.539,1.406A63.287,63.287,0,0,0,36.1,37.942l.85,1.138-1.4-.209a55.562,55.562,0,0,0-16.763,0l-1.4.209Z" transform="translate(-12169 -7915.344)" fill="#eee"/>
      <path id="Path_406-37" data-name="Path 406" d="M0,44.95v9.394a49.393,49.393,0,0,1,54.344,0V44.95A55.068,55.068,0,0,1,30.933,0H23.411A55.068,55.068,0,0,1,0,44.95m18.244-7.008A63.287,63.287,0,0,0,26.633,22.71l.539-1.406.539,1.406A63.287,63.287,0,0,0,36.1,37.942l.85,1.138-1.4-.209a55.562,55.562,0,0,0-16.763,0l-1.4.209Z" transform="translate(-12060.989 -7861) rotate(180)" fill="#eee"/>
    </g>
    <g transform="translate(12278 8410.344)">
      <path id="Path_405-38" data-name="Path 405" d="M0,44.95v9.394a49.393,49.393,0,0,1,54.344,0V44.95A55.068,55.068,0,0,1,30.933,0H23.411A55.068,55.068,0,0,1,0,44.95m18.244-7.008A63.287,63.287,0,0,0,26.633,22.71l.539-1.406.539,1.406A63.287,63.287,0,0,0,36.1,37.942l.85,1.138-1.4-.209a55.562,55.562,0,0,0-16.763,0l-1.4.209Z" transform="translate(-12169 -7915.344)" fill="#eee"/>
      <path id="Path_406-38" data-name="Path 406" d="M0,44.95v9.394a49.393,49.393,0,0,1,54.344,0V44.95A55.068,55.068,0,0,1,30.933,0H23.411A55.068,55.068,0,0,1,0,44.95m18.244-7.008A63.287,63.287,0,0,0,26.633,22.71l.539-1.406.539,1.406A63.287,63.287,0,0,0,36.1,37.942l.85,1.138-1.4-.209a55.562,55.562,0,0,0-16.763,0l-1.4.209Z" transform="translate(-12060.989 -7861) rotate(180)" fill="#eee"/>
    </g>
    <g transform="translate(12387 8410.344)">
      <path id="Path_405-39" data-name="Path 405" d="M0,44.95v9.394a49.393,49.393,0,0,1,54.344,0V44.95A55.068,55.068,0,0,1,30.933,0H23.411A55.068,55.068,0,0,1,0,44.95m18.244-7.008A63.287,63.287,0,0,0,26.633,22.71l.539-1.406.539,1.406A63.287,63.287,0,0,0,36.1,37.942l.85,1.138-1.4-.209a55.562,55.562,0,0,0-16.763,0l-1.4.209Z" transform="translate(-12169 -7915.344)" fill="#eee"/>
      <path id="Path_406-39" data-name="Path 406" d="M0,44.95v9.394a49.393,49.393,0,0,1,54.344,0V44.95A55.068,55.068,0,0,1,30.933,0H23.411A55.068,55.068,0,0,1,0,44.95m18.244-7.008A63.287,63.287,0,0,0,26.633,22.71l.539-1.406.539,1.406A63.287,63.287,0,0,0,36.1,37.942l.85,1.138-1.4-.209a55.562,55.562,0,0,0-16.763,0l-1.4.209Z" transform="translate(-12060.989 -7861) rotate(180)" fill="#eee"/>
    </g>
    <g transform="translate(12496 8410.344)">
      <path id="Path_405-40" data-name="Path 405" d="M0,44.95v9.394a49.393,49.393,0,0,1,54.344,0V44.95A55.068,55.068,0,0,1,30.933,0H23.411A55.068,55.068,0,0,1,0,44.95m18.244-7.008A63.287,63.287,0,0,0,26.633,22.71l.539-1.406.539,1.406A63.287,63.287,0,0,0,36.1,37.942l.85,1.138-1.4-.209a55.562,55.562,0,0,0-16.763,0l-1.4.209Z" transform="translate(-12169 -7915.344)" fill="#eee"/>
      <path id="Path_406-40" data-name="Path 406" d="M0,44.95v9.394a49.393,49.393,0,0,1,54.344,0V44.95A55.068,55.068,0,0,1,30.933,0H23.411A55.068,55.068,0,0,1,0,44.95m18.244-7.008A63.287,63.287,0,0,0,26.633,22.71l.539-1.406.539,1.406A63.287,63.287,0,0,0,36.1,37.942l.85,1.138-1.4-.209a55.562,55.562,0,0,0-16.763,0l-1.4.209Z" transform="translate(-12060.989 -7861) rotate(180)" fill="#eee"/>
    </g>
    <g transform="translate(12169 8465.344)">
      <path id="Path_405-41" data-name="Path 405" d="M0,44.95v9.394a49.393,49.393,0,0,1,54.344,0V44.95A55.068,55.068,0,0,1,30.933,0H23.411A55.068,55.068,0,0,1,0,44.95m18.244-7.008A63.287,63.287,0,0,0,26.633,22.71l.539-1.406.539,1.406A63.287,63.287,0,0,0,36.1,37.942l.85,1.138-1.4-.209a55.562,55.562,0,0,0-16.763,0l-1.4.209Z" transform="translate(-12169 -7915.344)" fill="#eee"/>
      <path id="Path_406-41" data-name="Path 406" d="M0,44.95v9.394a49.393,49.393,0,0,1,54.344,0V44.95A55.068,55.068,0,0,1,30.933,0H23.411A55.068,55.068,0,0,1,0,44.95m18.244-7.008A63.287,63.287,0,0,0,26.633,22.71l.539-1.406.539,1.406A63.287,63.287,0,0,0,36.1,37.942l.85,1.138-1.4-.209a55.562,55.562,0,0,0-16.763,0l-1.4.209Z" transform="translate(-12060.989 -7861) rotate(180)" fill="#eee"/>
    </g>
    <g transform="translate(12278 8465.344)">
      <path id="Path_405-42" data-name="Path 405" d="M0,44.95v9.394a49.393,49.393,0,0,1,54.344,0V44.95A55.068,55.068,0,0,1,30.933,0H23.411A55.068,55.068,0,0,1,0,44.95m18.244-7.008A63.287,63.287,0,0,0,26.633,22.71l.539-1.406.539,1.406A63.287,63.287,0,0,0,36.1,37.942l.85,1.138-1.4-.209a55.562,55.562,0,0,0-16.763,0l-1.4.209Z" transform="translate(-12169 -7915.344)" fill="#eee"/>
      <path id="Path_406-42" data-name="Path 406" d="M0,44.95v9.394a49.393,49.393,0,0,1,54.344,0V44.95A55.068,55.068,0,0,1,30.933,0H23.411A55.068,55.068,0,0,1,0,44.95m18.244-7.008A63.287,63.287,0,0,0,26.633,22.71l.539-1.406.539,1.406A63.287,63.287,0,0,0,36.1,37.942l.85,1.138-1.4-.209a55.562,55.562,0,0,0-16.763,0l-1.4.209Z" transform="translate(-12060.989 -7861) rotate(180)" fill="#eee"/>
    </g>
    <g transform="translate(12387 8465.344)">
      <path id="Path_405-43" data-name="Path 405" d="M0,44.95v9.394a49.393,49.393,0,0,1,54.344,0V44.95A55.068,55.068,0,0,1,30.933,0H23.411A55.068,55.068,0,0,1,0,44.95m18.244-7.008A63.287,63.287,0,0,0,26.633,22.71l.539-1.406.539,1.406A63.287,63.287,0,0,0,36.1,37.942l.85,1.138-1.4-.209a55.562,55.562,0,0,0-16.763,0l-1.4.209Z" transform="translate(-12169 -7915.344)" fill="#eee"/>
      <path id="Path_406-43" data-name="Path 406" d="M0,44.95v9.394a49.393,49.393,0,0,1,54.344,0V44.95A55.068,55.068,0,0,1,30.933,0H23.411A55.068,55.068,0,0,1,0,44.95m18.244-7.008A63.287,63.287,0,0,0,26.633,22.71l.539-1.406.539,1.406A63.287,63.287,0,0,0,36.1,37.942l.85,1.138-1.4-.209a55.562,55.562,0,0,0-16.763,0l-1.4.209Z" transform="translate(-12060.989 -7861) rotate(180)" fill="#eee"/>
    </g>
    <g transform="translate(12496 8465.344)">
      <path id="Path_405-44" data-name="Path 405" d="M0,44.95v9.394a49.393,49.393,0,0,1,54.344,0V44.95A55.068,55.068,0,0,1,30.933,0H23.411A55.068,55.068,0,0,1,0,44.95m18.244-7.008A63.287,63.287,0,0,0,26.633,22.71l.539-1.406.539,1.406A63.287,63.287,0,0,0,36.1,37.942l.85,1.138-1.4-.209a55.562,55.562,0,0,0-16.763,0l-1.4.209Z" transform="translate(-12169 -7915.344)" fill="#eee"/>
      <path id="Path_406-44" data-name="Path 406" d="M0,44.95v9.394a49.393,49.393,0,0,1,54.344,0V44.95A55.068,55.068,0,0,1,30.933,0H23.411A55.068,55.068,0,0,1,0,44.95m18.244-7.008A63.287,63.287,0,0,0,26.633,22.71l.539-1.406.539,1.406A63.287,63.287,0,0,0,36.1,37.942l.85,1.138-1.4-.209a55.562,55.562,0,0,0-16.763,0l-1.4.209Z" transform="translate(-12060.989 -7861) rotate(180)" fill="#eee"/>
    </g>
  </g>
</svg>
