<svg xmlns="http://www.w3.org/2000/svg" xmlns:xlink="http://www.w3.org/1999/xlink" width="52.442" height="89.595" viewBox="0 0 52.442 89.595">
  <defs>
    <clipPath id="clip-path">
      <rect id="Rectangle_642" data-name="Rectangle 642" width="52.442" height="76.414" fill="none"/>
    </clipPath>
  </defs>
  <g id="Group_477" data-name="Group 477" transform="translate(0.318)">
    <g id="Group_477-2" data-name="Group 477" transform="translate(-0.318)" clip-path="url(#clip-path)">
      <path id="Path_614" data-name="Path 614" d="M10.126,76.7A8.636,8.636,0,0,1,1.5,68.075V10.131A8.639,8.639,0,0,1,10.126,1.5H44.1a8.638,8.638,0,0,1,8.626,8.631V68.075A8.636,8.636,0,0,1,44.1,76.7Zm-6.2-8.627a6.208,6.208,0,0,0,6.2,6.2H44.1a6.208,6.208,0,0,0,6.2-6.2V48.234A45.577,45.577,0,0,1,3.924,48.2Z" transform="translate(-0.893 -0.894)" fill="#161515"/>
      <path id="Path_615" data-name="Path 615" d="M43.209,1.213a8.022,8.022,0,0,1,8.02,8.024V67.181a8.019,8.019,0,0,1-8.02,8.02H9.233a8.019,8.019,0,0,1-8.02-8.02V9.237a8.022,8.022,0,0,1,8.02-8.024ZM9.233,73.988H43.209a6.815,6.815,0,0,0,6.807-6.807V46.262a44.959,44.959,0,0,1-47.591-.036V67.181a6.813,6.813,0,0,0,6.807,6.807M43.209,0H9.233A9.246,9.246,0,0,0,0,9.237V67.181a9.243,9.243,0,0,0,9.233,9.233H43.209a9.243,9.243,0,0,0,9.233-9.233V9.237A9.246,9.246,0,0,0,43.209,0M9.233,72.776a5.6,5.6,0,0,1-5.595-5.595V48.356a46.192,46.192,0,0,0,45.166.033V67.181a5.6,5.6,0,0,1-5.595,5.595Z" fill="#fff"/>
      <path id="Path_616" data-name="Path 616" d="M53.591,114.386v20.92a6.815,6.815,0,0,1-6.807,6.807H12.807A6.813,6.813,0,0,1,6,135.306V114.35a44.959,44.959,0,0,0,47.591.036" transform="translate(-3.575 -68.125)" fill="#fff"/>
      <rect id="Rectangle_641" data-name="Rectangle 641" width="1.087" height="5.728" transform="translate(10.662 59.544)" fill="#161515"/>
      <path id="Path_617" data-name="Path 617" d="M31.666,152.449l.244-.884a4.354,4.354,0,0,0,.708.282,2.469,2.469,0,0,0,.724.122,1.488,1.488,0,0,0,.767-.16.512.512,0,0,0,.261-.463.5.5,0,0,0-.206-.384,4.165,4.165,0,0,0-.636-.408l-.253-.152q-.564-.337-.9-.581a2.6,2.6,0,0,1-.573-.577,1.243,1.243,0,0,1-.24-.745,1.374,1.374,0,0,1,.236-.788,1.563,1.563,0,0,1,.678-.547,2.57,2.57,0,0,1,1.057-.2,3.785,3.785,0,0,1,1.617.43l-.363.876a5.009,5.009,0,0,0-.627-.261,1.946,1.946,0,0,0-.611-.093,1.171,1.171,0,0,0-.619.147.477.477,0,0,0-.24.434.518.518,0,0,0,.19.408,4.462,4.462,0,0,0,.619.417l.27.152.244.143a9.163,9.163,0,0,1,.792.5,1.931,1.931,0,0,1,.493.522,1.3,1.3,0,0,1,.2.72,1.385,1.385,0,0,1-.249.817,1.637,1.637,0,0,1-.732.556,3.007,3.007,0,0,1-1.159.2,3.217,3.217,0,0,1-.88-.156,3.458,3.458,0,0,1-.813-.333" transform="translate(-18.805 -87.556)" fill="#161515"/>
      <path id="Path_618" data-name="Path 618" d="M45.352,146.965a2.829,2.829,0,0,1,1.507.391,2.547,2.547,0,0,1,.973,1.066,3.358,3.358,0,0,1,.333,1.508,3.313,3.313,0,0,1-.354,1.554,2.637,2.637,0,0,1-.99,1.061,2.907,2.907,0,0,1-1.47.4,2.809,2.809,0,0,1-1.5-.392,2.555,2.555,0,0,1-.969-1.062,3.586,3.586,0,0,1,.017-3.054,2.616,2.616,0,0,1,.99-1.07,2.889,2.889,0,0,1,1.466-.4m-1.668,3.016a2.658,2.658,0,0,0,.2,1.066,1.642,1.642,0,0,0,.577.724,1.518,1.518,0,0,0,.88.257,1.621,1.621,0,0,0,.855-.232,1.581,1.581,0,0,0,.607-.708,2.72,2.72,0,0,0,.223-1.158,2.611,2.611,0,0,0-.2-1.053,1.662,1.662,0,0,0-.581-.724,1.507,1.507,0,0,0-.876-.261,1.473,1.473,0,0,0-.838.257,1.815,1.815,0,0,0-.615.733,2.484,2.484,0,0,0-.232,1.1" transform="translate(-25.348 -87.556)" fill="#161515"/>
      <path id="Path_619" data-name="Path 619" d="M65.338,149.66a1.837,1.837,0,0,1,.77.758,2.475,2.475,0,0,1,.278,1.217,2.655,2.655,0,0,1-.513,1.622,3.775,3.775,0,0,1-1.272,1.1,4.328,4.328,0,0,1-1.5.5l-.152-.9a3.625,3.625,0,0,0,2.122-1.247,1.922,1.922,0,0,1-.842.194,1.894,1.894,0,0,1-.943-.236,1.764,1.764,0,0,1-.662-.632,1.658,1.658,0,0,1-.24-.876,1.739,1.739,0,0,1,.236-.91,1.658,1.658,0,0,1,.649-.619,1.933,1.933,0,0,1,.935-.223,2.417,2.417,0,0,1,1.133.257m-1.723,2.114a.847.847,0,0,0,.64.266,1.807,1.807,0,0,0,1.112-.346,1.574,1.574,0,0,0-.312-1.049,1.038,1.038,0,0,0-.817-.341.879.879,0,0,0-.623.236.755.755,0,0,0-.253.573.92.92,0,0,0,.253.661" transform="translate(-37.166 -89.008)" fill="#161515"/>
      <path id="Path_620" data-name="Path 620" d="M73.326,151.879a2.645,2.645,0,0,1,.3-1.272,2.251,2.251,0,0,1,.838-.884,2.441,2.441,0,0,1,2.409,0,2.19,2.19,0,0,1,.834.88,2.658,2.658,0,0,1,.3,1.264,2.753,2.753,0,0,1-.3,1.3,2.3,2.3,0,0,1-4.077,0,2.711,2.711,0,0,1-.3-1.289m1-.025a1.9,1.9,0,0,0,.173.821,1.38,1.38,0,0,0,.48.573,1.221,1.221,0,0,0,.7.206,1.238,1.238,0,0,0,.695-.2,1.365,1.365,0,0,0,.48-.556,1.928,1.928,0,0,0,0-1.6,1.392,1.392,0,0,0-.484-.56,1.293,1.293,0,0,0-1.382,0,1.343,1.343,0,0,0-.48.543,1.726,1.726,0,0,0-.173.783" transform="translate(-43.685 -89.008)" fill="#161515"/>
      <path id="Path_621" data-name="Path 621" d="M85.955,151.879a2.645,2.645,0,0,1,.3-1.272,2.25,2.25,0,0,1,.838-.884,2.441,2.441,0,0,1,2.409,0,2.191,2.191,0,0,1,.834.88,2.658,2.658,0,0,1,.3,1.264,2.753,2.753,0,0,1-.3,1.3,2.3,2.3,0,0,1-4.077,0,2.711,2.711,0,0,1-.3-1.289m1-.025a1.9,1.9,0,0,0,.173.821,1.377,1.377,0,0,0,.48.573,1.219,1.219,0,0,0,.695.206,1.239,1.239,0,0,0,.7-.2,1.367,1.367,0,0,0,.48-.556,1.926,1.926,0,0,0,0-1.6,1.392,1.392,0,0,0-.484-.56,1.293,1.293,0,0,0-1.382,0,1.34,1.34,0,0,0-.48.543,1.726,1.726,0,0,0-.173.783" transform="translate(-51.208 -89.008)" fill="#161515"/>
      <path id="Path_622" data-name="Path 622" d="M99.643,154.442v-3.555l-.96.371-.413-.817,1.735-.767h.733v4.768Z" transform="translate(-58.545 -89.169)" fill="#161515"/>
      <path id="Path_623" data-name="Path 623" d="M59.187,47.232a3.861,3.861,0,1,1,3.864-3.858,3.865,3.865,0,0,1-3.864,3.858m0-6.293a2.432,2.432,0,1,0,2.429,2.434,2.435,2.435,0,0,0-2.429-2.434" transform="translate(-32.962 -23.538)" fill="#fff"/>
      <path id="Path_624" data-name="Path 624" d="M41.931,46.45a9.325,9.325,0,0,1-.778-11.118l-1.144-.863a10.751,10.751,0,0,0,.908,12.994Z" transform="translate(-22.785 -20.535)" fill="#fff"/>
      <path id="Path_625" data-name="Path 625" d="M44.855,30.017l1.013,1.014a9.4,9.4,0,0,1,1.01-1.012l-1.013-1.013a10.893,10.893,0,0,0-1.01,1.011" transform="translate(-26.723 -17.281)" fill="#fff"/>
      <path id="Path_626" data-name="Path 626" d="M56.232,22.37a10.718,10.718,0,0,0-5.921,1.773l.861,1.145a9.346,9.346,0,0,1,11.5,1.081l1.249-.773a10.69,10.69,0,0,0-7.685-3.226" transform="translate(-29.973 -13.327)" fill="#fff"/>
      <path id="Path_627" data-name="Path 627" d="M58.464,42.288a5.882,5.882,0,1,1-.987-8.862l1.305-.807a7.315,7.315,0,1,0,.848,10.51Z" transform="translate(-27.908 -18.451)" fill="#fff"/>
      <path id="Path_628" data-name="Path 628" d="M59.667,67.291a9.334,9.334,0,0,1-11.3-.68l-1.013,1.013a10.76,10.76,0,0,0,13.2.792Z" transform="translate(-28.212 -39.684)" fill="#fff"/>
      <path id="Path_629" data-name="Path 629" d="M80.188,33.031l-4.181,2.587a6.539,6.539,0,0,1,1.408,3.9,5.833,5.833,0,0,1-.737,2.843l1.165.842a7.3,7.3,0,0,0,.145-7.125L79.732,35A9.357,9.357,0,0,1,77.86,46.4l.888,1.125a10.755,10.755,0,0,0,3.574-8.006,11.184,11.184,0,0,0-2.134-6.488" transform="translate(-45.282 -19.678)" fill="#fff"/>
      <path id="Path_630" data-name="Path 630" d="M41.442,89a3.018,3.018,0,1,0,3.026,3.02A3.027,3.027,0,0,0,41.442,89m0,4.8a1.779,1.779,0,1,1,1.787-1.778A1.785,1.785,0,0,1,41.439,93.8" transform="translate(-22.885 -53.025)" fill="#fff"/>
      <path id="Path_631" data-name="Path 631" d="M18.778,92.644H17.513l0-5.157h1.265Zm-.631-5.816a.765.765,0,1,1,.768-.764.758.758,0,0,1-.768.764" transform="translate(-10.354 -50.817)" fill="#fff"/>
      <path id="Path_632" data-name="Path 632" d="M58.931,88.969A3.027,3.027,0,0,0,55.9,91.985v2.9h1.335l0-2.993a1.692,1.692,0,0,1,3.384-.032l0,3.028h1.337l0-2.9a3.027,3.027,0,0,0-3.026-3.021" transform="translate(-33.303 -53.004)" fill="#fff"/>
      <path id="Path_633" data-name="Path 633" d="M76.264,92.3h0s-.2.015-.275.015c-.545,0-.8-.137-.8-.907l0-2.952h1.129v-.984H75.192V86.315H73.858v1.157h-.768v.979l.768,0,0,2.773a3.093,3.093,0,0,0,.284,1.452,1.541,1.541,0,0,0,1.472.77,3.725,3.725,0,0,0,.653-.063Z" transform="translate(-43.543 -51.422)" fill="#fff"/>
      <path id="Path_634" data-name="Path 634" d="M26.785,95.024A3.033,3.033,0,1,1,29,89.908l-.81,1a1.839,1.839,0,0,0-1.4-.682,1.765,1.765,0,1,0,0,3.529,1.814,1.814,0,0,0,1.415-.7l.813,1a3.067,3.067,0,0,1-2.229.965" transform="translate(-14.146 -52.997)" fill="#fff"/>
      <path id="Path_635" data-name="Path 635" d="M102.5,95.024a3.033,3.033,0,1,1,2.215-5.116l-.81,1a1.839,1.839,0,0,0-1.4-.682,1.765,1.765,0,1,0,0,3.529,1.814,1.814,0,0,0,1.415-.7l.813,1a3.067,3.067,0,0,1-2.229.965" transform="translate(-59.252 -52.997)" fill="#fff"/>
      <path id="Path_636" data-name="Path 636" d="M85.955,88.894a3.05,3.05,0,0,0,.179,6.093,2.785,2.785,0,0,0,2.477-1.338l-.913-.684a1.8,1.8,0,0,1-1.541.824,1.614,1.614,0,0,1-1.731-1.482l4.314,0s.02-.279.02-.378a2.759,2.759,0,0,0-2.805-3.038m-1.48,2.43a1.462,1.462,0,0,1,1.489-1.275,1.37,1.37,0,0,1,1.447,1.277Z" transform="translate(-49.515 -52.959)" fill="#fff"/>
    </g>
    <text id="SC1396-1" transform="translate(26.682 87.595)" fill="#181a1e" font-size="7" font-family="DMSans-Bold, DM Sans" font-weight="700" letter-spacing="-0.05em"><tspan x="-14" y="0">SC1396-1</tspan></text>
  </g>
</svg>
