<svg id="Group_480" data-name="Group 480" xmlns="http://www.w3.org/2000/svg" xmlns:xlink="http://www.w3.org/1999/xlink" width="52.442" height="89.595" viewBox="0 0 52.442 89.595">
  <defs>
    <clipPath id="clip-path">
      <rect id="Rectangle_645" data-name="Rectangle 645" width="52.442" height="76.414" fill="none"/>
    </clipPath>
  </defs>
  <g id="Group_479" data-name="Group 479" clip-path="url(#clip-path)">
    <path id="Path_661" data-name="Path 661" d="M10.127,76.7A8.636,8.636,0,0,1,1.5,68.075V10.131A8.638,8.638,0,0,1,10.127,1.5H44.1a8.638,8.638,0,0,1,8.626,8.631V68.075A8.636,8.636,0,0,1,44.1,76.7Zm-6.2-8.627a6.208,6.208,0,0,0,6.2,6.2H44.1a6.208,6.208,0,0,0,6.2-6.2V48.234A45.576,45.576,0,0,1,3.925,48.2Z" transform="translate(-0.894 -0.894)" fill="#1c191a"/>
    <path id="Path_662" data-name="Path 662" d="M43.209,1.213a8.022,8.022,0,0,1,8.02,8.024V67.181a8.019,8.019,0,0,1-8.02,8.02H9.233a8.019,8.019,0,0,1-8.02-8.02V9.237a8.022,8.022,0,0,1,8.02-8.024ZM9.233,73.988H43.209a6.815,6.815,0,0,0,6.807-6.807V46.262a44.959,44.959,0,0,1-47.591-.036V67.181a6.813,6.813,0,0,0,6.807,6.807M43.209,0H9.233A9.246,9.246,0,0,0,0,9.237V67.181a9.243,9.243,0,0,0,9.233,9.233H43.209a9.243,9.243,0,0,0,9.233-9.233V9.237A9.246,9.246,0,0,0,43.209,0M9.233,72.776a5.6,5.6,0,0,1-5.595-5.595V48.356a46.192,46.192,0,0,0,45.166.033V67.181a5.6,5.6,0,0,1-5.595,5.595Z" fill="#fff"/>
    <path id="Path_663" data-name="Path 663" d="M53.591,114.386v20.92a6.815,6.815,0,0,1-6.807,6.807H12.807A6.813,6.813,0,0,1,6,135.306V114.35a44.959,44.959,0,0,0,47.591.036" transform="translate(-3.575 -68.125)" fill="#fff"/>
    <path id="Path_664" data-name="Path 664" d="M59.187,47.232a3.861,3.861,0,1,1,3.864-3.858,3.865,3.865,0,0,1-3.864,3.858m0-6.293a2.432,2.432,0,1,0,2.429,2.434,2.435,2.435,0,0,0-2.429-2.434" transform="translate(-32.962 -23.538)" fill="#fff"/>
    <path id="Path_665" data-name="Path 665" d="M41.931,46.45a9.325,9.325,0,0,1-.778-11.118l-1.144-.863a10.751,10.751,0,0,0,.908,12.994Z" transform="translate(-22.785 -20.535)" fill="#fff"/>
    <path id="Path_666" data-name="Path 666" d="M44.855,30.017l1.013,1.014a9.436,9.436,0,0,1,1.01-1.012l-1.013-1.013a10.893,10.893,0,0,0-1.01,1.011" transform="translate(-26.723 -17.281)" fill="#fff"/>
    <path id="Path_667" data-name="Path 667" d="M56.232,22.37a10.718,10.718,0,0,0-5.921,1.773l.861,1.145a9.346,9.346,0,0,1,11.5,1.081l1.249-.773a10.69,10.69,0,0,0-7.685-3.226" transform="translate(-29.973 -13.327)" fill="#fff"/>
    <path id="Path_668" data-name="Path 668" d="M58.464,42.288a5.882,5.882,0,1,1-.987-8.862l1.305-.807a7.315,7.315,0,1,0,.848,10.51Z" transform="translate(-27.908 -18.451)" fill="#fff"/>
    <path id="Path_669" data-name="Path 669" d="M59.667,67.291a9.334,9.334,0,0,1-11.3-.68l-1.013,1.013a10.76,10.76,0,0,0,13.2.792Z" transform="translate(-28.212 -39.684)" fill="#fff"/>
    <path id="Path_670" data-name="Path 670" d="M80.188,33.031l-4.181,2.587a6.539,6.539,0,0,1,1.408,3.9,5.833,5.833,0,0,1-.737,2.843l1.165.842a7.3,7.3,0,0,0,.145-7.125L79.732,35A9.357,9.357,0,0,1,77.86,46.4l.888,1.125a10.755,10.755,0,0,0,3.574-8.006,11.184,11.184,0,0,0-2.134-6.488" transform="translate(-45.282 -19.678)" fill="#fff"/>
    <path id="Path_671" data-name="Path 671" d="M41.442,89a3.018,3.018,0,1,0,3.026,3.02A3.027,3.027,0,0,0,41.442,89m0,4.8a1.779,1.779,0,1,1,1.787-1.778A1.785,1.785,0,0,1,41.439,93.8" transform="translate(-22.885 -53.025)" fill="#fff"/>
    <path id="Path_672" data-name="Path 672" d="M18.778,92.644H17.513l0-5.157h1.265Zm-.631-5.816a.765.765,0,1,1,.768-.764.758.758,0,0,1-.768.764" transform="translate(-10.354 -50.817)" fill="#fff"/>
    <path id="Path_673" data-name="Path 673" d="M58.931,88.969A3.027,3.027,0,0,0,55.9,91.985v2.9h1.335l0-2.993a1.692,1.692,0,0,1,3.384-.032l0,3.028h1.337l0-2.9a3.027,3.027,0,0,0-3.026-3.021" transform="translate(-33.303 -53.004)" fill="#fff"/>
    <path id="Path_674" data-name="Path 674" d="M76.264,92.3h0s-.2.015-.275.015c-.545,0-.8-.137-.8-.907l0-2.952h1.129v-.984H75.192V86.315H73.858v1.157h-.768v.979l.768,0,0,2.773a3.093,3.093,0,0,0,.284,1.452,1.541,1.541,0,0,0,1.472.77,3.725,3.725,0,0,0,.653-.063Z" transform="translate(-43.543 -51.422)" fill="#fff"/>
    <path id="Path_675" data-name="Path 675" d="M26.785,95.024A3.033,3.033,0,1,1,29,89.908l-.81,1a1.839,1.839,0,0,0-1.4-.682,1.765,1.765,0,1,0,0,3.529,1.814,1.814,0,0,0,1.415-.7l.813,1a3.067,3.067,0,0,1-2.229.965" transform="translate(-14.146 -52.997)" fill="#fff"/>
    <path id="Path_676" data-name="Path 676" d="M102.5,95.024a3.033,3.033,0,1,1,2.215-5.116l-.81,1a1.839,1.839,0,0,0-1.4-.682,1.765,1.765,0,1,0,0,3.529,1.814,1.814,0,0,0,1.415-.7l.813,1a3.067,3.067,0,0,1-2.229.965" transform="translate(-59.252 -52.997)" fill="#fff"/>
    <path id="Path_677" data-name="Path 677" d="M85.954,88.894a3.05,3.05,0,0,0,.179,6.093,2.785,2.785,0,0,0,2.477-1.338l-.913-.684a1.8,1.8,0,0,1-1.541.824,1.614,1.614,0,0,1-1.731-1.482l4.314,0s.02-.279.02-.378a2.759,2.759,0,0,0-2.805-3.038m-1.48,2.43a1.462,1.462,0,0,1,1.489-1.275,1.37,1.37,0,0,1,1.447,1.277Z" transform="translate(-49.515 -52.959)" fill="#fff"/>
    <path id="Path_678" data-name="Path 678" d="M33.742,147.027V141.3h1.087l2.654,3.825V141.3h1.1v5.728h-1.1l-2.654-3.833v3.833Z" transform="translate(-20.102 -84.18)" fill="#161615"/>
    <path id="Path_679" data-name="Path 679" d="M52.09,148.368a1.857,1.857,0,0,1-.763.754,2.385,2.385,0,0,1-1.149.265,2.42,2.42,0,0,1-1.15-.261,1.838,1.838,0,0,1-.762-.745,2.29,2.29,0,0,1-.27-1.133,2.316,2.316,0,0,1,.27-1.138,1.863,1.863,0,0,1,.762-.754,2.388,2.388,0,0,1,1.15-.265,2.417,2.417,0,0,1,1.149.261,1.837,1.837,0,0,1,.763.745,2.291,2.291,0,0,1,.269,1.133,2.314,2.314,0,0,1-.269,1.137m-1.159-.261a1.29,1.29,0,0,0,.3-.876,1.269,1.269,0,0,0-.295-.867,1.008,1.008,0,0,0-1.512.008,1.29,1.29,0,0,0-.3.876,1.268,1.268,0,0,0,.3.868,1.008,1.008,0,0,0,1.512-.008" transform="translate(-28.594 -86.439)" fill="#161615"/>
    <path id="Path_680" data-name="Path 680" d="M61.552,149.448h-1.1v-4.086h.573l.363.682a3.535,3.535,0,0,1,.69-.472,1.533,1.533,0,0,1,.7-.211l.219.876a1.621,1.621,0,0,0-.686.2,3.483,3.483,0,0,0-.762.514Z" transform="translate(-36.018 -86.601)" fill="#161615"/>
    <path id="Path_681" data-name="Path 681" d="M67.522,148.966l.329-.741a2.72,2.72,0,0,0,1.07.278,1.132,1.132,0,0,0,.463-.093q.211-.093.211-.261,0-.329-.716-.548a3.2,3.2,0,0,1-.969-.5.934.934,0,0,1-.388-.766,1.093,1.093,0,0,1,.43-.914,1.85,1.85,0,0,1,1.163-.333,2.621,2.621,0,0,1,.7.118,2.431,2.431,0,0,1,.7.312l-.328.733a3.961,3.961,0,0,0-.569-.211,1.974,1.974,0,0,0-.518-.068.563.563,0,0,0-.35.105.308.308,0,0,0-.139.249q0,.109.165.2a3.52,3.52,0,0,0,.476.2,3.227,3.227,0,0,1,.994.556,1.043,1.043,0,0,1,.4.825,1.119,1.119,0,0,1-.438.948,2.06,2.06,0,0,1-1.264.333,2.965,2.965,0,0,1-.733-.11,1.874,1.874,0,0,1-.682-.312" transform="translate(-40.227 -86.439)" fill="#161615"/>
    <path id="Path_682" data-name="Path 682" d="M80.368,148.368a1.857,1.857,0,0,1-.763.754,2.385,2.385,0,0,1-1.149.265,2.42,2.42,0,0,1-1.15-.261,1.838,1.838,0,0,1-.762-.745,2.29,2.29,0,0,1-.27-1.133,2.316,2.316,0,0,1,.27-1.138,1.863,1.863,0,0,1,.762-.754,2.388,2.388,0,0,1,1.15-.265,2.417,2.417,0,0,1,1.149.261,1.837,1.837,0,0,1,.763.745,2.291,2.291,0,0,1,.269,1.133,2.314,2.314,0,0,1-.269,1.137m-1.159-.261a1.29,1.29,0,0,0,.3-.876,1.269,1.269,0,0,0-.295-.867,1.008,1.008,0,0,0-1.512.008,1.29,1.29,0,0,0-.3.876,1.268,1.268,0,0,0,.3.868,1.008,1.008,0,0,0,1.512-.008" transform="translate(-45.441 -86.439)" fill="#161615"/>
    <path id="Path_683" data-name="Path 683" d="M88.945,146.7v-5.855l1.087-.093v3.353l1.752-1.609.615.775-1.146,1,1.5,2.426H91.5l-1.028-1.727-.438.388V146.7Z" transform="translate(-52.989 -83.857)" fill="#161615"/>
    <path id="Path_684" data-name="Path 684" d="M38.949,165.455l.244-.884a4.355,4.355,0,0,0,.708.282,2.457,2.457,0,0,0,.724.123,1.488,1.488,0,0,0,.767-.16.513.513,0,0,0,.261-.464.5.5,0,0,0-.206-.384,4.166,4.166,0,0,0-.636-.408l-.253-.152q-.564-.337-.9-.581a2.6,2.6,0,0,1-.573-.577,1.243,1.243,0,0,1-.24-.745,1.374,1.374,0,0,1,.236-.788,1.563,1.563,0,0,1,.678-.547,2.571,2.571,0,0,1,1.057-.2,3.786,3.786,0,0,1,1.617.43l-.363.876a5,5,0,0,0-.627-.261,1.946,1.946,0,0,0-.611-.093,1.171,1.171,0,0,0-.619.147.477.477,0,0,0-.24.434.518.518,0,0,0,.19.408,4.46,4.46,0,0,0,.619.417l.27.152.244.143a9.163,9.163,0,0,1,.792.5,1.931,1.931,0,0,1,.493.522,1.3,1.3,0,0,1,.2.72,1.385,1.385,0,0,1-.249.817,1.637,1.637,0,0,1-.732.556,3.007,3.007,0,0,1-1.159.2,3.216,3.216,0,0,1-.88-.156,3.458,3.458,0,0,1-.813-.333" transform="translate(-23.144 -95.304)" fill="#161615"/>
    <path id="Path_685" data-name="Path 685" d="M52.017,168.562h-2.2l-.093-.859h2.207Z" transform="translate(-29.625 -99.91)" fill="#161615"/>
    <path id="Path_686" data-name="Path 686" d="M56.541,164.886a2.645,2.645,0,0,1,.3-1.272,2.25,2.25,0,0,1,.838-.884,2.441,2.441,0,0,1,2.409,0,2.192,2.192,0,0,1,.834.88,2.658,2.658,0,0,1,.3,1.264,2.753,2.753,0,0,1-.3,1.3,2.3,2.3,0,0,1-4.077,0,2.711,2.711,0,0,1-.3-1.289m1-.025a1.9,1.9,0,0,0,.173.821,1.377,1.377,0,0,0,.48.573,1.219,1.219,0,0,0,.695.206,1.239,1.239,0,0,0,.7-.2,1.368,1.368,0,0,0,.48-.556,1.926,1.926,0,0,0,0-1.6,1.392,1.392,0,0,0-.484-.56,1.293,1.293,0,0,0-1.382,0,1.34,1.34,0,0,0-.48.543,1.726,1.726,0,0,0-.173.783" transform="translate(-33.685 -96.757)" fill="#161615"/>
    <path id="Path_687" data-name="Path 687" d="M69.169,164.886a2.645,2.645,0,0,1,.3-1.272,2.251,2.251,0,0,1,.838-.884,2.441,2.441,0,0,1,2.409,0,2.191,2.191,0,0,1,.834.88,2.658,2.658,0,0,1,.3,1.264,2.753,2.753,0,0,1-.3,1.3,2.3,2.3,0,0,1-4.077,0,2.711,2.711,0,0,1-.3-1.289m1-.025a1.9,1.9,0,0,0,.173.821,1.38,1.38,0,0,0,.48.573,1.22,1.22,0,0,0,.7.206,1.238,1.238,0,0,0,.695-.2,1.365,1.365,0,0,0,.48-.556,1.928,1.928,0,0,0,0-1.6,1.392,1.392,0,0,0-.484-.56,1.293,1.293,0,0,0-1.382,0,1.343,1.343,0,0,0-.48.543,1.726,1.726,0,0,0-.173.783" transform="translate(-41.208 -96.757)" fill="#161615"/>
    <path id="Path_688" data-name="Path 688" d="M84.9,163.454a1.763,1.763,0,0,1,.661.632,1.653,1.653,0,0,1,.24.876,1.742,1.742,0,0,1-.236.91,1.658,1.658,0,0,1-.649.619,1.934,1.934,0,0,1-.935.223,2.414,2.414,0,0,1-1.133-.257,1.843,1.843,0,0,1-.771-.758,2.477,2.477,0,0,1-.278-1.217,2.653,2.653,0,0,1,.514-1.622,3.775,3.775,0,0,1,1.272-1.1,4.319,4.319,0,0,1,1.5-.5l.152.9a3.625,3.625,0,0,0-2.123,1.247,1.924,1.924,0,0,1,.842-.194,1.9,1.9,0,0,1,.943.236m-.328,2.123a.754.754,0,0,0,.253-.573.921.921,0,0,0-.253-.661.847.847,0,0,0-.64-.265,1.81,1.81,0,0,0-1.112.345,1.575,1.575,0,0,0,.312,1.049,1.038,1.038,0,0,0,.817.341.879.879,0,0,0,.623-.236" transform="translate(-48.731 -96.074)" fill="#161615"/>
  </g>
  <text id="NK-1833-1" transform="translate(26.13 87.595)" fill="#181a1e" font-size="7" font-family="DMSans-Bold, DM Sans" font-weight="700" letter-spacing="-0.05em"><tspan x="-15" y="0">NK-1833-1</tspan></text>
</svg>
