<svg xmlns="http://www.w3.org/2000/svg" xmlns:xlink="http://www.w3.org/1999/xlink" width="181.839" height="35.398" viewBox="0 0 181.839 35.398">
  <defs>
    <clipPath id="clip-path">
      <rect id="Rectangle_523" data-name="Rectangle 523" width="181.839" height="35.398" fill="#fff"/>
    </clipPath>
  </defs>
  <g id="Group_434" data-name="Group 434" transform="translate(0 0)">
    <path id="Path_391" data-name="Path 391" d="M173.516,36.755H162.043l-2.553,6h-3.946l10.014-23.211H170l9.981,23.211h-3.912ZM172.223,33.7l-4.344-10.18h-.232L163.336,33.7Z" transform="translate(-105.954 -13.314)" fill="#fff"/>
    <rect id="Rectangle_519" data-name="Rectangle 519" width="3.548" height="23.543" transform="translate(76.249 5.9)" fill="#fff"/>
    <rect id="Rectangle_520" data-name="Rectangle 520" width="3.548" height="23.543" transform="translate(83.41 5.9)" fill="#fff"/>
    <rect id="Rectangle_521" data-name="Rectangle 521" width="3.548" height="16.447" transform="translate(90.573 12.996)" fill="#fff"/>
    <rect id="Rectangle_522" data-name="Rectangle 522" width="3.548" height="3.548" transform="translate(90.573 5.9)" fill="#fff"/>
    <g id="Group_411" data-name="Group 411" transform="translate(0 0)">
      <g id="Group_410" data-name="Group 410" transform="translate(0 0)" clip-path="url(#clip-path)">
        <path id="Path_392" data-name="Path 392" d="M323.375,53.564v2.653h-1.592c-1.658,0-2.984-.564-3.482-2.354-1.293,1.625-3.581,2.686-7.03,2.686-3.979,0-6.8-1.526-6.8-4.841,0-3.183,2.454-4.709,5.935-5.007l7.461-.531v-.63c0-2.222-1.625-3.415-4.543-3.415-2.686,0-4.112,1.061-4.51,2.885h-3.548c.4-3.415,3.316-5.7,8.057-5.7,4.642,0,8.091,2.089,8.091,6.333v6.367c0,1.094.5,1.525,1.459,1.525Zm-5.5-4.941-6.532.5c-2.023.166-3.316.928-3.316,2.421,0,1.658,1.558,2.255,3.614,2.255,2.885,0,6.234-1.061,6.234-4.211Z" transform="translate(-207.404 -26.775)" fill="#fff"/>
        <path id="Path_393" data-name="Path 393" d="M370.309,39.638h3.25l.016,2.221s1.834-2.553,6.549-2.553c4.543,0,7.527,2.52,7.527,7.162v9.749H384.1V47.33c0-3.415-2.056-4.907-4.941-4.907-2.918,0-5.305,1.558-5.305,5.14v8.654h-3.548Z" transform="translate(-252.249 -26.775)" fill="#fff"/>
        <path id="Path_394" data-name="Path 394" d="M432.344,48.027c0-5.14,4.045-8.721,9.881-8.721,4.609,0,8.389,2.156,9.086,6.168H447.73c-.564-1.724-2.553-3.051-5.5-3.051-3.88,0-6.333,2.354-6.333,5.6,0,3.15,2.255,5.4,6.366,5.4,2.818,0,4.841-.962,5.571-2.785h3.548c-.7,3.647-4.178,5.9-9.119,5.9-6.168,0-9.914-3.614-9.914-8.522" transform="translate(-294.507 -26.775)" fill="#fff"/>
        <path id="Path_395" data-name="Path 395" d="M512.751,51.177h3.515c-.8,3.316-4.012,5.372-8.754,5.372-5.9,0-9.749-3.382-9.749-8.489,0-5.305,3.979-8.754,9.484-8.754,4.841,0,9.019,2.653,9.052,8.356a7.618,7.618,0,0,1-.066,1.194H501.311c.232,2.851,2.42,4.841,6.2,4.841,2.686,0,4.609-.862,5.239-2.52M501.344,46.3h11.473c-.2-2.454-2.188-4.145-5.57-4.145-3.449,0-5.471,1.824-5.9,4.145" transform="translate(-339.069 -26.775)" fill="#fff"/>
        <path id="Path_396" data-name="Path 396" d="M0,29.279V35.4a32.173,32.173,0,0,1,35.4,0V29.279A35.869,35.869,0,0,1,20.148,0h-4.9A35.869,35.869,0,0,1,0,29.279m11.883-4.565a41.223,41.223,0,0,0,5.464-9.921l.351-.916.351.916a41.223,41.223,0,0,0,5.464,9.921l.554.741-.91-.136a36.191,36.191,0,0,0-10.919,0l-.91.136Z" transform="translate(0 0)" fill="#fff"/>
        <path id="Path_397" data-name="Path 397" d="M560.512,20.8a2.3,2.3,0,1,1-2.307-2.3,2.268,2.268,0,0,1,2.307,2.3m-.469,0a1.836,1.836,0,1,0-1.838,1.78,1.751,1.751,0,0,0,1.838-1.78m-1.275.231.447.89h-.547l-.386-.781h-.48v.781h-.5V19.677h1.176a.639.639,0,0,1,.662.717.676.676,0,0,1-.375.634m-.966-.384h.618a.21.21,0,0,0,.215-.237.205.205,0,0,0-.215-.231H557.8Z" transform="translate(-378.673 -12.597)" fill="#fff"/>
      </g>
    </g>
  </g>
</svg>
