<svg xmlns="http://www.w3.org/2000/svg" width="120.117" height="16" viewBox="0 0 120.117 16">
  <path id="TM" d="M1633.1,491.974a7.628,7.628,0,0,1-3-2.847,8.358,8.358,0,0,1,0-8.263,7.627,7.627,0,0,1,3-2.846,9.023,9.023,0,0,1,4.319-1.022,9.223,9.223,0,0,1,3.78.747,7.276,7.276,0,0,1,2.8,2.153l-2.755,2.505a4.519,4.519,0,0,0-3.606-1.8,4.43,4.43,0,0,0-2.218.549,3.792,3.792,0,0,0-1.507,1.549,5.178,5.178,0,0,0,0,4.593,3.784,3.784,0,0,0,1.507,1.549,4.425,4.425,0,0,0,2.218.55,4.523,4.523,0,0,0,3.606-1.8l2.755,2.506a7.276,7.276,0,0,1-2.8,2.153,9.229,9.229,0,0,1-3.78.747A9.022,9.022,0,0,1,1633.1,491.974Zm23.72-2.275h-6.469l-1.2,2.989h-4.414l6.754-15.383h4.26l6.776,15.383h-4.5Zm-1.266-3.208-1.969-4.923-1.966,4.923ZM1675.26,478a5.35,5.35,0,0,1,2.359,1.977,5.452,5.452,0,0,1,.83,3.022,5.181,5.181,0,0,1-3.189,4.977,8.7,8.7,0,0,1-3.609.692h-2.665v4.022h-4.328V477.305h6.993a8.7,8.7,0,0,1,3.609.693Zm-1.86,6.658a2.064,2.064,0,0,0,.678-1.659,2.1,2.1,0,0,0-.678-1.67,2.969,2.969,0,0,0-2.009-.594h-2.4v4.506h2.4A3,3,0,0,0,1673.4,484.656Zm8.061-7.351h4.328v15.383h-4.328Zm11.578,3.45h-4.7v-3.45h13.706v3.45h-4.677v11.933h-4.328Zm21.019,8.944h-6.469l-1.2,2.989h-4.414l6.754-15.383h4.262l6.776,15.383h-4.5Zm-1.269-3.208-1.966-4.923-1.467,3.67-.5,1.252Zm23.666-9.186v15.383h-3.563l-6.754-8.2v8.2H1721.9V477.305h3.56l6.754,8.2v-8.2Zm4.783,4.21h1.182v-3.258h1.277v-.942h-3.742v.942h1.282v3.258Zm7.879,0-.011-4.2h-.973l-1.434,2.424-1.467-2.424h-.974v4.2h1.093v-2.166l1.068,1.752h.526l1.074-1.812.011,2.226h1.087Z" transform="translate(-1629 -476.995)" fill="#fff" fill-rule="evenodd"/>
</svg>
